# xmcd CD database file
# Copyright (C) 1993-1998 Ti Kan
# 
# Track frame offsets:
#     150
#     10834
#     24250
#     34537
#     45477
#     58850
#     70925
#     82577
#     95855
#     107335
#     121257
#     131467
# 
# Disc length: 1942 seconds
# 
# Revision: 1
# Processed by: cddbd v1.4b41PL1 Copyright (c) Steve Scherf et al.
# Submitted via: DiscPlay 4.0.4
# 
DISCID=8907940c
DTITLE=Varios - Rancheras 2 Homenaje a Jose Alfredo Jimenez
DYEAR=1900
DGENRE=
TTITLE0=Pa'todo el a o
TTITLE1=Cuatro caminos
TTITLE2=El rey
TTITLE3=El camino de la noche
TTITLE4=Te solte la rienda
TTITLE5=La mano de Dios
TTITLE6=Que te vaya bonito
TTITLE7=El hijo del pueblo
TTITLE8=El peor de los caminos
TTITLE9=Tierra sin nombre
TTITLE10=En el ultimo trago
TTITLE11=Pasaste a la historia
EXTD=
EXTT0=
EXTT1=
EXTT2=
EXTT3=
EXTT4=
EXTT5=
EXTT6=
EXTT7=
EXTT8=
EXTT9=
EXTT10=
EXTT11=
PLAYORDER=
